<?xml version="1.0" encoding="UTF-8" standalone="no"?>
<!-- Created with Inkscape (http://www.inkscape.org/) -->

<svg
   width="48"
   height="48"
   viewBox="0 0 48 48"
   version="1.1"
   id="svg1"
   sodipodi:docname="down.svg"
   inkscape:version="1.4 (e7c3feb100, 2024-10-09)"
   xmlns:inkscape="http://www.inkscape.org/namespaces/inkscape"
   xmlns:sodipodi="http://sodipodi.sourceforge.net/DTD/sodipodi-0.dtd"
   xmlns="http://www.w3.org/2000/svg"
   xmlns:svg="http://www.w3.org/2000/svg">
  <sodipodi:namedview
     id="namedview1"
     pagecolor="#505050"
     bordercolor="#eeeeee"
     borderopacity="1"
     inkscape:showpageshadow="0"
     inkscape:pageopacity="0"
     inkscape:pagecheckerboard="0"
     inkscape:deskcolor="#505050"
     inkscape:document-units="px"
     showgrid="true"
     inkscape:zoom="10.842304"
     inkscape:cx="26.654851"
     inkscape:cy="27.992205"
     inkscape:window-width="1680"
     inkscape:window-height="1050"
     inkscape:window-x="0"
     inkscape:window-y="0"
     inkscape:window-maximized="1"
     inkscape:current-layer="layer1">
    <inkscape:grid
       id="grid1"
       units="px"
       originx="0"
       originy="0"
       spacingx="1"
       spacingy="1"
       empcolor="#0099e5"
       empopacity="0.30196078"
       color="#0099e5"
       opacity="0.14901961"
       empspacing="5"
       enabled="true"
       visible="true" />
  </sodipodi:namedview>
  <defs
     id="defs1" />
  <g
     inkscape:label="Ebene 1"
     inkscape:groupmode="layer"
     id="layer1">
    <path
       d="m 38.4,24.55 c 0.4,0.4 0.6,0.883333 0.6,1.45 v 2 L 25,42 11,28 v -2 c 0,-0.566667 0.18333,-1.05 0.55,-1.45 C 11.95,24.183333 12.43333,24 13,24 h 6 V 10 C 19,9.4333333 19.18333,8.95 19.55,8.55 19.95,8.1833333 20.43333,8 21,8 h 7.95 C 29.51667,8 30,8.1833333 30.4,8.55 30.8,8.95 31,9.4333333 31,10 v 14 h 5.95 c 0.56667,0 1.05,0.183333 1.45,0.55"
       style="fill:#ffffff;stroke:none"
       id="path1" />
  </g>
</svg>
