<?xml version="1.0" encoding="UTF-8" standalone="no"?>
<!-- Created with Inkscape (http://www.inkscape.org/) -->

<svg
   width="48"
   height="48"
   viewBox="0 0 48 48"
   version="1.1"
   id="svg1"
   sodipodi:docname="right.svg"
   inkscape:version="1.4 (e7c3feb100, 2024-10-09)"
   xmlns:inkscape="http://www.inkscape.org/namespaces/inkscape"
   xmlns:sodipodi="http://sodipodi.sourceforge.net/DTD/sodipodi-0.dtd"
   xmlns="http://www.w3.org/2000/svg"
   xmlns:svg="http://www.w3.org/2000/svg">
  <sodipodi:namedview
     id="namedview1"
     pagecolor="#505050"
     bordercolor="#eeeeee"
     borderopacity="1"
     inkscape:showpageshadow="0"
     inkscape:pageopacity="0"
     inkscape:pagecheckerboard="0"
     inkscape:deskcolor="#505050"
     inkscape:document-units="px"
     showgrid="true"
     inkscape:zoom="15.333333"
     inkscape:cx="34.467391"
     inkscape:cy="30.358696"
     inkscape:window-width="1680"
     inkscape:window-height="1050"
     inkscape:window-x="0"
     inkscape:window-y="0"
     inkscape:window-maximized="1"
     inkscape:current-layer="layer1">
    <inkscape:grid
       id="grid1"
       units="px"
       originx="0"
       originy="0"
       spacingx="1"
       spacingy="1"
       empcolor="#0099e5"
       empopacity="0.30196078"
       color="#0099e5"
       opacity="0.14901961"
       empspacing="5"
       enabled="true"
       visible="true" />
  </sodipodi:namedview>
  <defs
     id="defs1" />
  <g
     inkscape:label="Ebene 1"
     inkscape:groupmode="layer"
     id="layer1">
    <path
       d="M 24,13.05 C 24,12.483333 24.183333,12 24.55,11.6 24.95,11.2 25.433333,11 26,11 h 2 L 42,25 28,39 H 26 C 25.433333,39 24.95,38.816667 24.55,38.45 24.183333,38.05 24,37.566667 24,37 V 31 H 9.999999 c -0.566666,0 -1.0499996,-0.183333 -1.4499996,-0.55 -0.3666667,-0.4 -0.55,-0.883333 -0.55,-1.45 v -7.95 c 0,-0.566667 0.1833333,-1.05 0.55,-1.45 0.4,-0.4 0.8833336,-0.6 1.4499996,-0.6 H 24 v -5.95"
       style="fill:#ffffff;stroke:none"
       id="path1" />
  </g>
</svg>
